<svg version="1.1" id="Layer_1" xmlns="http://www.w3.org/2000/svg" xmlns:xlink="http://www.w3.org/1999/xlink" x="0" y="0" viewBox="0 0 1366 404.4" style="enable-background:new 0 0 1366 404.4" xml:space="preserve"><style>.st1{fill:#fff}</style><defs><path id="SVGID_1_" transform="rotate(-180 682.991 202.187)" d="M0 0h1366v404.4H0z"/></defs><clipPath id="SVGID_00000026872948585659018810000007157782425485899393_"><use xlink:href="#SVGID_1_" style="overflow:visible"/></clipPath><g style="opacity:6.000000e-02;clip-path:url(#SVGID_00000026872948585659018810000007157782425485899393_)"><path d="M1687.3-49.2c-187.4 125.3-409.9 197.3-635.2 205.6-155 5.7-312.8-17.9-463.8 17.6-57.9 13.6-113.6 35.8-171.3 50.5-99.2 25.3-203 28.4-302.2 53.9C-19.6 313-177.2 398.7-268 503.7c0 0 25.9-516.5 29-513.5 3.2 3 1926.3-39.4 1926.3-39.4z"/><path class="st1" d="M1687.1-49.5C1572 27.2 1444 84.1 1310 118.5c-67.8 17.4-137 29-206.8 34.5-73 5.8-146.1 3.7-219.2 1.8-74.9-1.9-150.1-3.3-224.6 6.1-35.7 4.5-70.8 11.7-105.4 21.6-36.4 10.4-72.1 23-108.4 33.6-71.4 20.9-145 29.4-218.3 40.3-67.1 9.9-132.7 24-196.1 48.5C-27 327.4-83 356-135.2 390.2c-25.7 16.9-50.5 35.2-74 55.1-11.4 9.7-22.5 19.9-33.2 30.5-2.4 2.4-25.2 27.7-25.1 27.7-1.9-.9 1.6-32.3 1.8-34.8 1.4-28 2.8-55.9 4.3-83.9 3.9-75.3 7.8-150.7 12-226 2.9-53.3 5.1-106.7 9.8-159.8.1-1.5.6-8.4.7-8.5.4-.3 2.3.2 2.8.1 6.3-.3 12.6 0 18.9-.1 29.1-.3 58.1-.8 87.2-1.3 47.2-.8 94.5-1.7 141.7-2.6C73-14.6 134.3-15.8 195.5-17c71.2-1.4 142.3-2.9 213.5-4.4l230.5-4.8c78.7-1.7 157.3-3.3 236-5 75.7-1.6 151.3-3.2 227-4.9 68.8-1.5 137.6-3 206.3-4.5 57.7-1.3 115.4-2.5 173.2-3.8 42.5-.9 85-1.9 127.4-2.8l69.2-1.5c2.9-.1 5.9-.1 8.8-.2.5 0 .5-.8 0-.8l-82.2 1.8c-71.8 1.6-143.6 3.1-215.4 4.7l-306.5 6.6-350.1 7.5c-117.1 2.5-234.1 5-351.2 7.4-103.3 2.1-206.5 4.3-309.8 6.3-73.6 1.5-147.3 2.9-220.9 4.1-21.4.4-42.9.7-64.3 1-6 .1-12 .1-18 .1-1.5 0-6.3-.9-7.6-.1-1.7 1-1.5 6.6-1.7 8.9-1.2 13.6-2 27.2-2.9 40.7-3.2 49.8-5.9 99.6-8.6 149.3-5.4 98.9-10.5 197.9-15.5 296.8l-.9 18c0 .3.4.5.6.3 80.3-92.3 192.6-158.4 306.2-201 61.8-23.1 125.7-36.4 190.8-46 71.5-10.5 143.3-18.9 212.9-39 69.3-20 136.3-45.1 208.1-55.1 73.7-10.2 148.3-9.4 222.5-7.6 71.1 1.7 142.3 4.3 213.3-.3 65.3-4.3 130.3-13.9 194.1-28.5C1409 96.6 1533 46.3 1645.7-22.5c14.1-8.6 28-17.5 41.7-26.7.5 0 .1-.6-.3-.3z"/></g><g style="opacity:6.000000e-02;clip-path:url(#SVGID_00000026872948585659018810000007157782425485899393_)"><path d="M-231.1 239.3c226.3-81.2 476.1-6.7 716.3-17.7 103-4.7 164.2-5.3 266.3-19.7 51.9-7.3 144.4-33 195.6-43.8 62.5-13.1 123.2-33.7 185.1-49.6 244.5-62.8 501.1-52.4 753.3-41.4v-182.8H-231.1v355z"/><path class="st1" d="M-231 239.7c135.2-48 280.1-41.3 420.8-30.5 71.3 5.5 142.6 12.1 214.2 13.6 68.2 1.5 136.7-2.5 204.7-6.4 59.7-3.4 120.1-8.5 178.8-20.6 53.6-11 106.2-25.9 159.7-37.3 73-15.6 143.7-40.4 216.4-57.2 73-16.9 147.3-27.6 221.9-33.9 148.2-12.6 297.2-8.3 445.6-2.2 18.1.8 36.3 1.5 54.4 2.3.2 0 .4-.2.4-.4V-115.7c0-.2-.2-.4-.4-.4H-145.1c-27.3 0-55.1-1.5-82.3 0-1.2.1-2.4 0-3.6 0-.2 0-.4.2-.4.4v355c0 .5.8.5.8 0V-43.6c0-22.7-2.2-46.7 0-69.4.3-2.9-.7-1.7.5-2.4 1.1-.6 4.1 0 5.4 0h2093.1c4 0 12.6-1.7 16.3 0 1.6.7.7-.5.7 3 .1 12.9 0 25.9 0 38.8V60.3c0 1.2.5 3.6 0 4.7-1.1 2.8 1.3 1.2-3.7 1.4-19.9.8-40.5-1.7-60.5-2.6-20.2-.8-40.4-1.6-60.6-2.3-158.3-5.5-317.6-6.3-474.8 16.2-80.3 11.5-158.2 31-236.1 53.3-65.1 18.7-131.2 33.1-197.1 49-29.2 7.1-58.4 14.1-88 19.3-34.9 6.1-70.4 9.6-105.7 12.6-71.6 6.1-144.2 9.7-216.1 10.2-154.1 1.1-307.1-26.8-461.3-21.1-72.3 2.7-144.3 13.4-212.6 37.7-.5.4-.3 1.1.1 1z"/></g><g style="opacity:6.000000e-02;clip-path:url(#SVGID_00000026872948585659018810000007157782425485899393_)"><linearGradient id="SVGID_00000067216497131932636990000015016704115214075314_" gradientUnits="userSpaceOnUse" x1="706.383" y1="507.184" x2="706.383" y2="174.869" gradientTransform="rotate(180 682.991 202.187)"><stop offset="0" style="stop-color:#fff"/><stop offset="1" style="stop-color:#000"/></linearGradient><path style="fill:url(#SVGID_00000067216497131932636990000015016704115214075314_)" d="M-550 410.7c290.2 54.1 590.2-4.5 870.8-96.5 112.1-36.7 222.4-78.8 330.5-126 81.3-35.5 162-74.2 248.6-93.1 134.2-29.4 273.7-9.6 409.6 10.2 193.3 28.2 392.5-42.1 559.7 59.3V-102H-550v512.7z"/><path class="st1" d="M-550.1 411.1c158.5 29.2 320.9 25.3 479.7.7 164.4-25.5 325-72.2 481.6-128 78.2-27.9 155.5-58.4 231.7-91.5 75.8-32.9 150.7-69.1 230.8-90.4 82.6-22 168.6-24.4 253.4-18.2 43.3 3.2 86.4 8.5 129.4 14.5 38.5 5.4 76.8 11.6 115.7 13.6 146.7 7.6 302.7-28.8 443.5 26.9 18.5 7.3 36.2 16.2 53.2 26.4.2.1.6 0 .6-.3v-266.7c0-.2-.2-.4-.4-.4h-2321c-31.1 0-63-2.1-94.1 0-1.4.1-2.8 0-4.1 0-.2 0-.4.2-.4.4V410.9c0 .5.8.5.8 0V-80.7c0-4.5-2.2-16.2 0-20.3.8-1.5-1 .3 1.5-.6 2-.7 5.6 0 7.7 0H1848.7c4.4 0 15.2-2.1 19.2 0 1.6.8.9.5.8 4.3-.3 13.9 0 27.8 0 41.6V159.8c0 8.8-3.1 2.4-10.3-1.6-149.7-83.7-328.1-37.9-490.4-47.3-45.9-2.6-91.2-10.8-136.8-16.8-47.6-6.3-95.4-11.4-143.4-13.3-94.1-3.8-185.5 7.7-274.4 39.3-88.9 31.6-173.6 74.2-261.1 109.4-88.9 35.8-179.2 68.3-270.7 97.1C101.1 383.3-86 425-275.8 430.6c-91.8 2.7-183.8-3.4-274.2-20.1-.3-.3-.5.5-.1.6z"/></g></svg>