<svg xmlns="http://www.w3.org/2000/svg" viewBox="0 0 769.3 95.9" style="enable-background:new 0 0 769.3 95.9" xml:space="preserve"><path d="M1 70.2 17.1 27l18.8 47.1 13.4-29.9 8.1 31.4 12.1-24.3 18.1 18.8 19.9-50.5L122.3 84l5.4-32.2 17.9 18.3 12.5 24.7 23.7-47.6 24.6 43.4 20.1-43.4s17 45.5 17.9 43.4 3.1-47.5 3.1-47.5 29.5 49 32.2 47.5C282.5 89.1 306.3 1 306.3 1l28.6 87.1s20.6-36.7 21-40.8c.4-4.1 7.2-44 7.2-44L394 94.9s26.9-32.5 26.9-35.3c0-2.8 15.2-53.9 15.2-53.9l6.3 45.4 7.2 13.7 3.1-13.2 12.1-23.5L480 47.3s-.4 18.6 1.8 17.5c2.2-1.2 22.8-11.1 23.7-13.2.9-2.1 14.8-13.8 14.8-13.8l11.6 26.9L548 40.6l20.6 33.5 15.2-38.8 23.7 29.3 13-26.9 37.6 29.4 6.3-19.9 21 12.3 15.7-21.8 26.4 21.8 12.1-30.4 16.1-20.4 12.7 21.4" style="opacity:.5;fill:none;stroke:#9b2add;stroke-width:1.9442;stroke-linecap:round;stroke-linejoin:round;stroke-miterlimit:10"/></svg>