<?xml version="1.0" encoding="utf-8"?>
<!-- Generator: Adobe Illustrator 25.0.1, SVG Export Plug-In . SVG Version: 6.00 Build 0)  -->
<svg version="1.1" id="Layer_1" xmlns="http://www.w3.org/2000/svg" xmlns:xlink="http://www.w3.org/1999/xlink" x="0px" y="0px"
	 viewBox="0 0 252.1 49.4" style="enable-background:new 0 0 252.1 49.4;" xml:space="preserve">
<style type="text/css">
	.st0{fill:#191A41;}
	.st1{fill:#00ADEE;}
</style>
<g>
	<path class="st0" d="M81.9,26.4c0,8.3-5.8,14.3-14.1,14.3c-2.5,0-4.6-0.6-6.5-1.7v10.4h-9.1V12.2h9.5v1.5c1.9-1,4-1.6,6.2-1.6
		C76.1,12.1,81.9,18,81.9,26.4z M73.3,26.4c0-3.5-2.6-6.2-5.9-6.2c-3.5,0-5.9,2.6-5.9,6.2c0,3.5,2.6,6.2,5.9,6.2
		C70.7,32.5,73.3,29.9,73.3,26.4z"/>
	<path class="st0" d="M97.4,39.8l-6.7-11.4v11.4h-9.3V3.3h9.3v20.1L97.1,13h10.4l-8.3,12.7l9.1,14h-11v0.1H97.4z"/>
	<path class="st0" d="M123.5,31.8v8h-6.3c-5.9,0-9.5-3.6-9.5-9.5V20.1h-4.9V18l12-12.7h1.9v7.8h6.7v7h-6.5v8.5c0,2,1.1,3.1,3.1,3.1
		C119.7,31.8,123.5,31.8,123.5,31.8z"/>
	<rect x="1.5" y="11" class="st1" width="10.1" height="10.1"/>
	<rect class="st1" width="6.4" height="6.4"/>
	<rect x="16.7" y="0.6" class="st1" width="6.9" height="6.9"/>
	<rect x="9.9" y="2.3" class="st1" width="3.5" height="3.5"/>
	<path class="st1" d="M44,12.4v22.1c0,3.5-2.8,6.4-6.4,6.4h-22V12.4H44z"/>
</g>
<g>
	<path class="st1" d="M131.6,33.7L132,36l0.6-2.4l6.4-20.3h2.5l6.3,20.1l0.7,2.8l0.6-2.6l5.4-20.4h3l-7.7,26.5h-2.5l-6.8-21.1
		l-0.3-1.4l-0.3,1.5l-6.7,21h-2.5L123,13.2h3L131.6,33.7z"/>
	<path class="st1" d="M179.9,39.8c-0.3-0.8-0.5-2.1-0.6-3.7c-1,1.3-2.3,2.4-3.9,3.1s-3.3,1.1-5.1,1.1c-2.6,0-4.6-0.7-6.2-2.1
		c-1.6-1.4-2.4-3.2-2.4-5.4c0-2.6,1.1-4.6,3.2-6.1c2.2-1.5,5.1-2.3,9-2.3h5.3v-3c0-1.9-0.6-3.4-1.8-4.5s-2.9-1.6-5.1-1.6
		c-2,0-3.7,0.5-5.1,1.6s-2,2.3-2,3.8h-2.9c0-2.1,1-3.9,2.9-5.5c2-1.5,4.4-2.3,7.2-2.3c3,0,5.3,0.7,7,2.2s2.6,3.5,2.6,6.2v12.6
		c0,2.6,0.3,4.5,0.8,5.8V40h-2.9V39.8z M170.7,37.7c2,0,3.7-0.5,5.3-1.4s2.7-2.2,3.4-3.8v-5.8h-5.2c-2.9,0-5.2,0.6-6.9,1.6
		s-2.5,2.5-2.5,4.3c0,1.5,0.6,2.7,1.7,3.7C167.5,37.2,168.9,37.7,170.7,37.7z"/>
	<path class="st1" d="M194.6,6.4v6.8h5.5v2.4h-5.5v17.7c0,1.5,0.3,2.6,0.8,3.3s1.4,1.1,2.7,1.1c0.5,0,1.3-0.1,2.4-0.2l0.1,2.4
		c-0.8,0.3-1.8,0.4-3.1,0.4c-2,0-3.5-0.6-4.4-1.8s-1.4-2.9-1.4-5.2V15.7h-4.9v-2.4h4.9V6.4H194.6z"/>
	<path class="st1" d="M216,37.8c2,0,3.8-0.6,5.1-1.7c1.4-1.2,2.1-2.6,2.2-4.5h2.8c-0.1,1.6-0.6,3.1-1.5,4.4s-2.2,2.4-3.7,3.1
		s-3.2,1.1-5,1.1c-3.5,0-6.2-1.2-8.3-3.6c-2-2.4-3.1-5.7-3.1-9.8V26c0-2.6,0.5-4.9,1.4-6.9s2.2-3.6,3.9-4.7s3.7-1.6,6-1.6
		c2.9,0,5.3,0.9,7.2,2.6s2.9,4,3,6.8h-2.8c-0.1-2.1-0.9-3.8-2.2-5c-1.4-1.3-3.1-1.9-5.2-1.9c-2.6,0-4.7,1-6.2,2.9s-2.2,4.6-2.2,8V27
		c0,3.4,0.7,6,2.2,7.9C211.3,36.9,213.4,37.8,216,37.8z"/>
	<path class="st1" d="M235,17.7c1-1.6,2.2-2.8,3.7-3.7s3.1-1.3,4.9-1.3c2.8,0,5,0.8,6.4,2.4s2.1,4,2.1,7.2v17.4h-2.9V22.3
		c0-2.4-0.5-4.1-1.5-5.3s-2.6-1.7-4.7-1.7c-1.8,0-3.4,0.6-4.8,1.7s-2.4,2.7-3.1,4.6v18.2h-2.9V2.1h2.9L235,17.7L235,17.7z"/>
</g>
</svg>
