<svg version="1.1" id="Layer_1" xmlns="http://www.w3.org/2000/svg" x="0" y="0" viewBox="0 0 252.1 49.4" style="enable-background:new 0 0 252.1 49.4" xml:space="preserve"><style>.st0{fill:#00adee}.st1{fill:#fff}</style><path class="st0" d="M81.9 26.4c0 8.3-5.8 14.3-14.1 14.3-2.5 0-4.6-.6-6.5-1.7v10.4h-9.1V12.2h9.5v1.5c1.9-1 4-1.6 6.2-1.6 8.2 0 14 5.9 14 14.3zm-8.6 0c0-3.5-2.6-6.2-5.9-6.2-3.5 0-5.9 2.6-5.9 6.2 0 3.5 2.6 6.2 5.9 6.2 3.3-.1 5.9-2.7 5.9-6.2z"/><path class="st0" d="m97.4 39.8-6.7-11.4v11.4h-9.3V3.3h9.3v20.1L97.1 13h10.4l-8.3 12.7 9.1 14h-11v.1h.1z"/><path class="st0" d="M123.5 31.8v8h-6.3c-5.9 0-9.5-3.6-9.5-9.5V20.1h-4.9V18l12-12.7h1.9v7.8h6.7v7h-6.5v8.5c0 2 1.1 3.1 3.1 3.1-.3.1 3.5.1 3.5.1z"/><path class="st1" d="M1.5 11h10.1v10.1H1.5zM0 0h6.4v6.4H0zM16.7.6h6.9v6.9h-6.9zM9.9 2.3h3.5v3.5H9.9zM44 12.4v22.1c0 3.5-2.8 6.4-6.4 6.4h-22V12.4H44z"/><g><path class="st1" d="m131.6 33.7.4 2.3.6-2.4 6.4-20.3h2.5l6.3 20.1.7 2.8.6-2.6 5.4-20.4h3l-7.7 26.5h-2.5l-6.8-21.1-.3-1.4-.3 1.5-6.7 21h-2.5L123 13.2h3l5.6 20.5zM179.9 39.8c-.3-.8-.5-2.1-.6-3.7-1 1.3-2.3 2.4-3.9 3.1s-3.3 1.1-5.1 1.1c-2.6 0-4.6-.7-6.2-2.1-1.6-1.4-2.4-3.2-2.4-5.4 0-2.6 1.1-4.6 3.2-6.1 2.2-1.5 5.1-2.3 9-2.3h5.3v-3c0-1.9-.6-3.4-1.8-4.5s-2.9-1.6-5.1-1.6c-2 0-3.7.5-5.1 1.6s-2 2.3-2 3.8h-2.9c0-2.1 1-3.9 2.9-5.5 2-1.5 4.4-2.3 7.2-2.3 3 0 5.3.7 7 2.2s2.6 3.5 2.6 6.2v12.6c0 2.6.3 4.5.8 5.8v.3h-2.9v-.2zm-9.2-2.1c2 0 3.7-.5 5.3-1.4s2.7-2.2 3.4-3.8v-5.8h-5.2c-2.9 0-5.2.6-6.9 1.6s-2.5 2.5-2.5 4.3c0 1.5.6 2.7 1.7 3.7 1 .9 2.4 1.4 4.2 1.4zM194.6 6.4v6.8h5.5v2.4h-5.5v17.7c0 1.5.3 2.6.8 3.3s1.4 1.1 2.7 1.1c.5 0 1.3-.1 2.4-.2l.1 2.4c-.8.3-1.8.4-3.1.4-2 0-3.5-.6-4.4-1.8s-1.4-2.9-1.4-5.2V15.7h-4.9v-2.4h4.9V6.4h2.9zM216 37.8c2 0 3.8-.6 5.1-1.7 1.4-1.2 2.1-2.6 2.2-4.5h2.8c-.1 1.6-.6 3.1-1.5 4.4s-2.2 2.4-3.7 3.1-3.2 1.1-5 1.1c-3.5 0-6.2-1.2-8.3-3.6-2-2.4-3.1-5.7-3.1-9.8V26c0-2.6.5-4.9 1.4-6.9s2.2-3.6 3.9-4.7 3.7-1.6 6-1.6c2.9 0 5.3.9 7.2 2.6s2.9 4 3 6.8h-2.8c-.1-2.1-.9-3.8-2.2-5-1.4-1.3-3.1-1.9-5.2-1.9-2.6 0-4.7 1-6.2 2.9s-2.2 4.6-2.2 8v.8c0 3.4.7 6 2.2 7.9 1.7 2 3.8 2.9 6.4 2.9zM235 17.7c1-1.6 2.2-2.8 3.7-3.7s3.1-1.3 4.9-1.3c2.8 0 5 .8 6.4 2.4s2.1 4 2.1 7.2v17.4h-2.9V22.3c0-2.4-.5-4.1-1.5-5.3s-2.6-1.7-4.7-1.7c-1.8 0-3.4.6-4.8 1.7s-2.4 2.7-3.1 4.6v18.2h-2.9V2.1h2.9l-.1 15.6z"/></g></svg>