<?xml version="1.0" encoding="utf-8"?>
<!-- Generator: Adobe Illustrator 28.0.0, SVG Export Plug-In . SVG Version: 6.00 Build 0)  -->
<svg version="1.1" id="Layer_1" xmlns="http://www.w3.org/2000/svg" xmlns:xlink="http://www.w3.org/1999/xlink" x="0px" y="0px"
	 viewBox="0 0 1853 369.5" style="enable-background:new 0 0 1853 369.5;" xml:space="preserve">
<style type="text/css">
	.st0{fill:#FFFFFF;}
	.st1{fill:#14BFF4;}
	.st2{fill:#D3D3D3;}
	.st3{fill:#E5E5E5;}
	.st4{fill:#009ECE;}
	.st5{fill:#00ADEE;}
</style>
<path class="st0" d="M474.4,216.4h-25.7v63.2h-52V92.5h77.8c46.5,0,70.1,26.3,70.1,62.4C544.4,187.5,521.9,216.4,474.4,216.4
	L474.4,216.4z M469.3,175c15.7,0,22-8,22-20.2c0-12.5-6.4-20.4-22-20.4h-20.7V175H469.3z M617.4,197.6v82h-52V92.5h52v80.7
	l58.1-80.7h60l-68.7,90.8l72.2,96.4h-62.9L617.4,197.6L617.4,197.6z M747.8,92.5h151.3v41.4h-49.9v145.7h-52V133.9h-49.4L747.8,92.5
	L747.8,92.5z"/>
<path class="st1" d="M909.7,94.6h25.7l40.3,156.9l44.6-156.9h27.1l42.5,156.3l40.6-156.3h26l-53.6,185h-27.1l-43-148.9l-44.6,148.9
	l-26.8,0.3L909.7,94.6L909.7,94.6z M1292.4,238.4h-80.7l-14.9,41.1h-25.5l66.9-184h27.9l66.6,184h-25.5L1292.4,238.4z M1252.1,125.4
	l-33.4,93.4h66.9C1285.6,218.8,1252.1,125.4,1252.1,125.4z M1350.6,94.6h125.3v19.6h-50.4v165.4h-24.2V114.2h-50.7L1350.6,94.6
	L1350.6,94.6z M1588.9,92.2c40.1,0,71.9,20.2,85.7,56h-28.9c-10.1-22.3-29.7-34.8-56.8-34.8c-38.8,0-67.7,28.1-67.7,73.5
	c0,45.1,28.9,73.3,67.7,73.3c27.1,0,46.7-12.5,56.8-34.5h28.9c-13.8,35.6-45.7,55.5-85.7,55.5c-51.8,0-92.4-38.8-92.4-94.2
	S1537.2,92.2,1588.9,92.2L1588.9,92.2z M1828.9,195.7h-94.2v83.9h-24.2v-185h24.2v81.2h94.2V94.6h24.2v185h-24.2V195.7L1828.9,195.7
	z"/>
<path class="st0" d="M0,277.1v-92.3l160-92.4l160,92.4v92.3l-160,92.4L0,277.1z"/>
<path class="st2" d="M0,277.1v-92.3l160,92.3v92.4L0,277.1z"/>
<path class="st3" d="M320,277.1v-92.3l-160,92.3v92.4L320,277.1z"/>
<path class="st1" d="M0,184.8V92.4L160,0l160,92.4v92.4l-80,46.1l-80-46.1l-80,46.1L0,184.8z"/>
<path class="st4" d="M80,230.9L0,184.8V92.4l80,46.2V230.9z M240,230.9l-80-46.1V92.4l80,46.2V230.9z"/>
<path class="st5" d="M80,230.9v-92.3l80-46.2v92.4L80,230.9z M240,230.9v-92.3l80-46.2v92.4L240,230.9z"/>
</svg>
